<?xml version="1.0" encoding="UTF-8"?>
<!DOCTYPE svg PUBLIC "-//W3C//DTD SVG 1.1//EN" "http://www.w3.org/Graphics/SVG/1.1/DTD/svg11.dtd">
<!-- Creator: CorelDRAW -->
<svg xmlns="http://www.w3.org/2000/svg" xml:space="preserve" width="12.7mm" height="12.7mm" version="1.1" style="shape-rendering:geometricPrecision; text-rendering:geometricPrecision; image-rendering:optimizeQuality; fill-rule:evenodd; clip-rule:evenodd"
viewBox="0 0 1270 1270"
 xmlns:xlink="http://www.w3.org/1999/xlink"
 xmlns:xodm="http://www.corel.com/coreldraw/odm/2003">
 <defs>
  <style type="text/css">
   <![CDATA[
    .fil4 {fill:#D2D2EA;fill-opacity:0.980392}
    .fil3 {fill:#D5D5ED;fill-opacity:0.980392}
    .fil1 {fill:#D6D6EE;fill-opacity:0.980392}
    .fil2 {fill:#D7D7EF;fill-opacity:0.980392}
    .fil0 {fill:#3B3B47;fill-opacity:0.988235}
   ]]>
  </style>
 </defs>
 <g id="Capa_x0020_2">
  <metadata id="CorelCorpID_0Corel-Layer"/>
  <polygon class="fil0" points="466.12,390.24 399.27,351.88 634.42,216.42 701.73,254.51 "/>
  <polygon class="fil0" points="568.5,718.9 635.62,757.09 872.05,620.88 804.73,582.81 "/>
  <polygon class="fil0" points="751.77,419.63 685.13,458.22 802.99,525.15 870.18,486.88 "/>
  <polygon class="fil0" points="787.75,669.34 871.71,621.82 871.71,487.55 787.75,487.55 "/>
  <polygon class="fil0" points="869,347.44 797.98,387.49 566.01,255.75 636.19,215.22 "/>
  <polygon class="fil0" points="701.91,717.84 634.73,756.12 397.94,621.65 465.2,583.41 "/>
  <polygon class="fil0" points="418.53,340.68 398.81,352 398.81,620.97 465.31,659.33 465.31,374.48 "/>
 </g>
 <g id="Capa_x0020_3">
  <metadata id="CorelCorpID_1Corel-Layer"/>
  <polygon class="fil1" points="423.89,366.27 340.33,318.32 634.28,149 718.41,196.61 "/>
  <polygon class="fil2" points="551.87,777.07 635.77,824.82 931.33,654.56 847.17,606.97 "/>
  <polygon class="fil1" points="697.01,450.86 780.74,402.87 928.98,487.05 845,534.9 "/>
  <polygon class="fil3" points="825.95,715.14 930.9,655.74 930.9,487.9 825.95,487.9 "/>
  <polygon class="fil3" points="548.76,198.16 636.49,147.5 928.98,313.6 840.66,363.92 "/>
  <polygon class="fil4" points="718.64,775.75 634.66,823.61 338.66,655.51 422.74,607.72 "/>
  <polygon class="fil1" points="364.4,304.31 339.75,318.47 339.75,654.67 422.87,702.62 422.87,346.57 "/>
 </g>
</svg>
