<?xml version="1.0" encoding="UTF-8"?>
<!DOCTYPE svg PUBLIC "-//W3C//DTD SVG 1.1//EN" "http://www.w3.org/Graphics/SVG/1.1/DTD/svg11.dtd">
<!-- Creator: CorelDRAW -->
<svg xmlns="http://www.w3.org/2000/svg" xml:space="preserve" width="66.1458mm" height="66.1458mm" version="1.1" style="shape-rendering:geometricPrecision; text-rendering:geometricPrecision; image-rendering:optimizeQuality; fill-rule:evenodd; clip-rule:evenodd"
viewBox="0 0 6614.58 6614.58"
 xmlns:xlink="http://www.w3.org/1999/xlink"
 xmlns:xodm="http://www.corel.com/coreldraw/odm/2003">
 <defs>
  <style type="text/css">
   <![CDATA[
    .str0 {stroke:#E4E4E4;stroke-width:282.22;stroke-miterlimit:22.9256}
    .fil0 {fill:black}
    .fil1 {fill:#E4E4E4}
    .fil2 {fill:black;fill-rule:nonzero}
    .fil3 {fill:#E4E4E4;fill-rule:nonzero}
   ]]>
  </style>
 </defs>
 <g id="Capa_x0020_1">
  <metadata id="CorelCorpID_0Corel-Layer"/>
  <ellipse class="fil0 str0" cx="3307.29" cy="3307.29" rx="2910.42" ry="2910.41"/>
  <ellipse class="fil1" cx="3307.29" cy="3307.29" rx="1984.38" ry="1984.37"/>
  <path class="fil2" d="M2366.63 2180.68c-3.66,17.28 -7.79,34.33 -12.2,49.27 -4.3,14.57 -8.22,27.44 -12.2,38.02 -3.68,9.78 -7.87,18.13 -10.81,23.12 -2.98,5.05 -5.92,8.31 -8.01,8.21 -4.52,-0.21 -7.98,-14.88 -10.8,-42.89 -2.75,-27.34 -8.34,-57.71 -16.73,-90.33 -8.34,-32.46 -20.85,-62.09 -37.99,-89.73 -17.01,-27.41 -41.13,-41.58 -72.14,-41.98 -38.69,-0.5 -78.03,28.26 -123.39,83.65 -46.31,56.56 -97.48,133.31 -155.79,230.24 -58.79,97.73 -125.1,211 -180.18,346.14 -53.7,131.71 -90.73,277.38 -81.22,431.29 10.74,173.69 57.83,326.92 104.56,462.32 47.01,136.21 96.1,251.39 141.86,347.66 45.19,95.05 86.35,170.13 126.86,225.68 39.99,54.85 78.07,87.36 115.71,96.72 24.73,6.15 48.47,0.63 70.75,-14.9 22.67,-15.79 41.82,-44.41 57.86,-85.77 -21.61,-142.96 -45.48,-285.89 -70.4,-428.87 -24.92,-142.91 -48.1,-285.6 -67.27,-428.86 -67.27,-10.04 -134.2,-19.37 -201.1,-27.98 -6.28,-0.81 -12.9,-10.95 -18.48,-29.81 -5.57,-18.85 -9.49,-45.92 -12.89,-80.6 -1.82,-18.55 -2.08,-34.98 -1.74,-48.36 0.34,-13.68 1.36,-25.21 2.44,-33.76 1,-7.88 3.58,-14.62 6.28,-19.17 2.54,-4.31 4.88,-6.41 8.01,-6.08 80.51,8.48 160.69,18.15 241.53,28.9 3.84,0.5 7.84,3.2 11.85,7.9 4.01,4.72 7.72,11.7 11.85,22.21 3.88,9.88 6.79,24.06 9.41,41.36 2.59,17.07 4.97,38.67 7.66,63.27 18.21,165.79 41.82,331.29 68.67,496.69 26.82,165.2 52.86,330.54 74.93,496.08 4.41,33.07 6.28,60.84 5.93,83.33 -0.35,22.52 -4.68,42.53 -12.55,60.84 -7.81,18.18 -18.94,37.27 -33.11,57.18 -14.4,20.24 -29.83,35.31 -46.35,46.84 -16.59,11.58 -33.22,18.69 -49.85,22.51 -16.49,3.78 -33.08,3.18 -49.49,-1.22 -51.53,-13.84 -97.12,-55.39 -142.19,-126.22 -44.16,-69.41 -89.95,-162.57 -141.5,-277.7 -51.98,-116.07 -111.44,-251.45 -168,-409.09 -56.71,-158.06 -117.66,-330 -129.31,-520.72 -12.12,-198.57 46.32,-381.05 122.34,-542.92 77.72,-165.49 163.11,-302.01 229.68,-418.82 65.21,-114.44 115.65,-204.72 161.02,-270.1 44.57,-64.23 85.74,-97.94 132.09,-98.54 23.69,-0.31 45.68,8.08 65.87,25.54 20.59,17.82 39,38.25 53.68,63.88 14.59,25.48 26.2,52.82 34.15,82.12 8.07,29.7 12.92,53.2 14.29,70.26 1.41,17.61 0.88,34.67 -0.69,51.1 -1.55,16.11 -6.12,40.11 -12.9,72.09zm580.65 2512.03c0,10.65 0.17,19.19 -0.7,26.46 -0.86,7.32 -2.83,12.86 -5.23,17.34 -2.49,4.67 -5.63,7.41 -10.1,8.82 -4.25,1.33 -10.14,1.62 -16.73,-0.61 -5.96,-2.02 -10.6,-4.38 -14.99,-7.9 -4.33,-3.47 -7.83,-9.38 -10.45,-17.04 -2.59,-7.55 -5.65,-17.63 -7.32,-28.89 -1.81,-12.15 -2.64,-27.44 -4.88,-45.32 -30.16,-239.74 -65.84,-479.12 -105.96,-717.21 -13.54,-80.36 -29.38,-156.32 -45.3,-227.81 -15.78,-70.84 -33.42,-133.11 -51.94,-185.84 -18.77,-53.43 -38.68,-96.67 -60.64,-128.97 -22.29,-32.78 -47.41,-51.07 -74.93,-55.96 -27.19,-4.84 -54.38,-9.73 -81.56,-14.59 22.66,208.34 49.31,416.55 73.19,625.03 23.86,208.22 42.6,416.69 53.33,624.75 0.41,8.19 -0.51,15.8 -1.4,23.11 -0.85,6.98 -2.66,11.69 -4.88,14.6 -2.66,3.48 -5.61,5.95 -9.75,6.99 -4.22,1.08 -9.07,0.91 -15.69,-1.82 -5.92,-2.43 -10.91,-5.68 -15.68,-10.65 -4.29,-4.45 -7.55,-9.8 -10.11,-14.9 -2.31,-4.62 -4.34,-10.93 -5.58,-18.86 -1.19,-7.57 -1.39,-15.21 -2.09,-23.72 -34.84,-427.65 -120.49,-853.1 -139.76,-1283.24 -19.15,-427.38 105.68,-854.43 178.1,-1283.24 8.47,-50.19 9.45,-85.46 16.03,-104.33 6.99,-20.05 13.24,-29.69 19.17,-29.8 40.42,-0.8 81.21,-1.48 121.99,-2.13 16.02,-0.25 29.28,1.21 39.73,4.86 10.46,3.65 20.69,7.83 28.58,13.69 24.89,18.49 45.22,49.95 61.34,92.16 16.28,42.65 27.71,96.1 33.81,159.08 6.09,62.94 6.97,134.75 2.09,214.73 -4.87,79.69 -13.92,166.03 -26.5,258.53 -12.86,94.56 -26.89,179.63 -40.77,254.58 -13.65,73.78 -27.68,139.08 -42.52,194.66 -14.79,55.44 -29.34,102.33 -46.7,141.75 -16.79,38.13 -35.2,69.64 -56.12,94.28 15.34,24.64 29.38,53.64 42.87,87.6 13.69,34.46 27.24,75.11 40.78,122.88 13.29,46.82 26.75,101.84 39.73,163.03 13.15,61.98 27.1,130.01 40.08,206.52 38.95,229.47 73.27,461 103.51,693.17 7.04,54.05 9.79,90.95 11.51,110.72 1.75,20.07 2.44,34.06 2.44,43.49zm-172.52 -2089.56c18.48,-122.61 28.05,-226.9 27.53,-312.06 -0.52,-85.77 -13.75,-146.81 -39.38,-184.02 -8.51,-12.36 -18.12,-21 -28.93,-26.16 -11.49,-5.48 -26.15,-8.14 -44.96,-8.51 -27.19,-0.54 -54.72,-0.92 -81.56,-1.53 -27.88,169.42 -64.9,339 -99.33,508.56 -34.23,168.68 -55.07,338.83 -63.77,507.94 37.63,5.78 75.28,11.21 112.92,16.73 30.67,4.51 55.93,-5.35 77.72,-29.2 22.12,-24.21 41.32,-59.37 57.85,-104.03 16.92,-45.67 31.74,-99.59 44.96,-162.42 13.27,-63.09 25.82,-131.45 36.95,-205.3zm786.97 2080.74c1.42,22.85 3.31,41.38 3.14,55.35 -0.17,14.61 -1.62,25.91 -4.18,34.08 -2.31,7.33 -6.28,13.99 -10.8,17.03 -4.53,3.04 -10.82,5.75 -18.13,7.3 -6.97,1.48 -13.26,1.56 -17.77,0.3 -4.2,-1.17 -7.66,-5.19 -10.46,-9.42 -2.42,-3.67 -4.35,-9.42 -5.58,-17.04 -1.21,-7.58 -2.25,-15.81 -3.13,-27.07 -10.27,-129.86 -19.69,-260.35 -27.19,-390.54 -7.48,-130.16 -16.03,-260.66 -25.09,-391.45 -110.49,3.96 -220.28,0.91 -330.75,-9.13 -7.67,128.96 -16.05,257.93 -24.41,385.68 -8.37,128.04 -16.04,255.79 -24.74,383.54 -0.7,10.33 -1.41,19.22 -2.79,26.46 -1.4,7.37 -3.74,12.74 -6.27,17.95 -2.38,4.9 -5.26,8.15 -10.11,10.34 -3.86,1.75 -10.1,1.77 -16.73,0 -6.95,-1.86 -13.4,-5 -18.82,-9.73 -4.69,-4.09 -8.42,-10.83 -10.8,-18.56 -2.49,-8.09 -3.5,-19.16 -3.84,-32.24 -0.35,-13.98 0.71,-31.33 2.09,-53.83 27.89,-454.72 39.01,-914.92 66.93,-1377.23 28.2,-466.98 119.74,-934.87 180.18,-1405.51 1.59,-12.38 2.52,-22.79 4.53,-30.72 2.16,-8.49 5.21,-15.28 8.02,-19.46 3.13,-4.66 7.07,-8.94 11.5,-11.26 4.28,-2.25 9.41,-3.35 14.99,-3.35 5.92,0 11.19,0.85 16.03,3.05 4.56,2.06 8.16,6.23 11.5,10.94 2.92,4.12 5.68,10.94 7.67,19.47 1.84,7.88 3.17,18.23 3.83,30.72 25.13,471.72 48.82,943.17 113.97,1412.2 64.85,466.87 98.67,931.68 127.21,1392.13zm-289.62 -2553.09c-0.36,0 -0.36,0 -0.36,0 -36.94,267.05 -84.56,532.03 -112.56,798.41 -27.78,264.25 -26.15,528.93 -35.21,792.33 98.99,7.29 197.97,9.43 296.95,6.99 -36.24,-265.52 -89.16,-530.49 -114.67,-797.5 -25.39,-265.79 -26.84,-533.49 -34.15,-800.23zm885.26 2316.45c-2.88,26.03 -2.75,47.41 -5.58,64.48 -3.08,18.51 -4.92,33.15 -8.02,44.72 -3.17,11.85 -6.31,20.59 -10.1,26.15 -3.88,5.7 -7.62,9.26 -10.81,10.65 -4.47,1.95 -9.08,3.59 -13.24,5.18 -6.99,2.66 -13.23,1.79 -19.51,-3.05 -5.57,-4.28 -11.13,-14.49 -16.39,-30.11 -5.19,-15.41 -9.76,-37.42 -13.94,-65.4 -4.17,-27.98 -9.03,-65.01 -11.16,-109.49 -13.2,-276.41 -8.51,-558.72 -50.88,-840.99 -43.48,-289.65 -132.5,-577.97 -196.56,-872.33 -18.89,-86.75 -34.49,-176.06 -49.85,-267.96 -15.65,-93.62 -29.62,-183.1 -42.17,-271.01 -0.34,0 -0.34,0 -0.34,0 2.43,108.58 5.21,220.54 8.36,335.49 3.12,113.76 6.22,225.78 12.89,335.19 19.12,313.39 54.71,626.66 46.7,939.84 -8.02,313.64 -38.99,626.55 -49.83,940.15 -0.31,8.81 -0.14,17.07 -1.4,25.24 -1.18,7.64 -3.43,14.45 -5.57,18.86 -2.74,5.64 -6.1,10.79 -10.11,14.9 -4,4.1 -9.4,8.01 -15.69,9.73 -5.89,1.62 -11.18,1.28 -15.68,-0.6 -4.2,-1.76 -7.96,-4.67 -10.45,-8.52 -2.05,-3.16 -3.89,-9.43 -4.88,-16.42 -1.09,-7.59 -1.73,-15.22 -1.4,-24.34 16.74,-455.93 53.82,-912.26 32.77,-1367.48 -21.12,-456.65 -44.98,-911.87 -50.89,-1367.5 -0.7,-54.13 2.3,-91.19 8.36,-111.32 6.13,-20.32 12.2,-30.41 18.12,-30.41 8.37,0 17.08,0 25.45,0 8.01,0 14.67,3.02 20.21,9.42 5.25,6.06 10.25,16.09 14.64,29.81 4.66,14.55 9.12,34.36 13.94,60.22 4.93,26.45 9.87,59.36 16.38,99.16 37.4,228.76 76.59,455.96 126.87,680.4 50.09,223.61 114.65,443.25 164.85,662.76 18.48,80.79 28.52,159.23 36.6,234.51 7.94,74.07 12.39,147.19 15.34,218.08 2.97,71.45 3.65,141.14 4.52,209.86 0.87,68.44 2.1,136.88 3.14,206.83 0,0 0,0 0.35,-0.31 14.64,-119.53 32.57,-243.78 48.79,-373.5 16.19,-129.43 32.44,-254.17 31.37,-373.81 -2.41,-268.09 -40.59,-535.79 -72.14,-803.89 -31.52,-267.81 -55.94,-535.61 -72.85,-803.28 -0.51,-8.19 0,-15.82 1.04,-23.11 1.04,-7.3 2.25,-13.48 4.54,-18.55 2.23,-4.97 5.68,-8.34 9.41,-10.35 3.58,-1.93 8.71,-2.89 14.63,-2.74 5.57,0.14 10.06,1.35 14.29,3.35 4.13,1.95 7.78,5.84 10.12,10.65 2.55,5.27 4.37,10.92 5.57,18.25 1.24,7.56 1.44,14.93 2.09,22.81 35.59,426.74 114.31,850.65 145.34,1279.89 30.76,425.66 -49.94,853.27 -97.24,1279.89zm877.59 -1362.01c24.64,213.87 -16.09,406.06 -71.09,569.08 -55.86,165.56 -122.45,301.52 -176.36,414.56 -53.46,112.1 -99.18,201.12 -144.64,264.92 -46.22,64.88 -94.15,104.48 -151.61,120.46 -44.3,12.31 -89.26,26.96 -133.84,41.36 -6.3,2.02 -12.74,-4.49 -19.16,-20.99 -6.12,-15.74 -11.77,-49.04 -5.23,-98.55 53.07,-401.43 153.81,-802.99 126.16,-1202.94 -27.93,-404.32 -129.67,-801.76 -178.44,-1203.25 -5.95,-49.03 -1.89,-83.27 3.83,-101.58 5.78,-18.49 11.86,-27.75 17.77,-27.68 45.32,0.53 90.63,1.15 135.93,1.83 55.07,0.83 101.83,31.43 144.99,90.63 43.98,60.34 88.18,144.22 138.71,252.15 51.6,110.19 109.29,239.43 167.3,391.75 57.7,151.52 123.87,319.05 145.68,508.25zm-79.11 13.38c-15.67,-150.37 -62.24,-287.91 -106.66,-414.87 -44.44,-127.01 -91.92,-236.47 -136.26,-328.79 -44.19,-92 -86,-164.07 -127.22,-216.26 -40.69,-51.53 -83.66,-78.56 -131.39,-77.86 -34.16,0.5 -67.97,0.91 -101.77,1.52 56.81,366.81 153.96,729.98 181.58,1100.14 27.27,365.49 -63.09,733.32 -126.52,1099.83 35.9,-10.34 71.15,-20.18 107,-28.89 46.74,-11.36 89.23,-41.66 129.65,-90.34 41.13,-49.55 82.44,-119.04 127.22,-210.78 45.49,-93.2 96.8,-206.7 137.32,-344.92 40.01,-136.52 66.63,-300.98 47.05,-488.78z"/>
  <path class="fil3" d="M1877.46 1572.62l-181.87 177.93 54.55 130.81 -37.22 36.42 -203.57 -490.58 52.44 -51.31 486.32 213.96 -40.97 40.07 -129.68 -57.3zm-197.66 135.15l155.53 -152.18 -271.03 -122.45 115.5 274.63zm707.56 -299.28l-412.7 -279.73c1.61,3.5 5.57,10.37 11.89,20.61 6.36,10.34 14.22,22.78 23.36,37.31 9.23,14.62 18.77,30.13 28.7,46.63 9.99,16.59 19.44,32.81 28.36,48.94l128.5 232.36 -47.92 26.5 -238.6 -431.45 69.53 -38.45 419.42 279.36c-1.46,-4.13 -7.09,-13.69 -16.88,-28.78 -9.68,-15.17 -21.52,-33.95 -35.32,-56.3 -13.87,-22.44 -27.97,-46.49 -42.2,-72.21l-127.81 -231.13 47.91 -26.49 238.59 431.45 -74.83 41.38zm410.17 -140.91c-43.19,9.85 -83.22,9.64 -120.11,-0.87 -36.89,-10.51 -68.77,-31.88 -95.5,-64.25 -26.73,-32.35 -46.59,-76.36 -59.39,-131.81 -9.57,-41.48 -11.33,-79.13 -5.12,-113.11 6.06,-33.95 18.02,-63.76 35.67,-89.49 17.7,-25.63 39.45,-46.82 65.17,-63.4 25.69,-16.7 53.27,-28.33 82.55,-35.09 36.72,-8.48 67.8,-11.23 93.39,-8.28 25.7,2.81 51.9,10.28 78.7,22.28l-28.76 39.08c-40.76,-19.08 -85.82,-22.92 -135.45,-11.46 -21.45,4.95 -41.83,13.25 -60.87,24.94 -19.18,11.61 -35.28,27.18 -48.31,46.69 -13.03,19.41 -21.51,43.51 -25.5,72.08 -3.95,28.67 -1.35,62.55 7.7,101.74 16.58,71.81 42.81,120.8 79.01,147.15 36.05,26.27 81.21,33.07 135.67,20.5 43.43,-10.03 82.03,-27.91 115.85,-53.91l-36.32 -157.36 -126.5 29.2 -17.16 -39.84 190.01 -43.87 52.23 226.22c-22.96,16.55 -47.77,32.09 -74.38,46.62 -26.64,14.52 -60.96,26.51 -102.58,36.24zm692.36 -561.74l2.06 334.78c0.2,33.23 -7.79,62.32 -23.88,87.14 -15.92,24.94 -38.25,44.31 -66.81,58.25 -28.56,13.93 -61.68,20.9 -99.36,21.25 -38.24,0.11 -71.43,-6.67 -99.74,-20.5 -28.31,-13.82 -50.3,-33.04 -65.98,-57.78 -15.66,-24.86 -23.47,-53.5 -23.66,-86.03l-2.06 -334.79 54.61 -0.33 2.16 350.52c0.22,35.45 12.64,61.85 37.45,79.3 24.66,17.46 57.02,26 96.95,25.76 40.51,-0.25 73.05,-9.19 97.78,-26.95 24.59,-17.76 36.84,-44.31 36.62,-79.76l-2.15 -350.52 56.01 -0.34zm200.59 525.38l107.72 -481.12 54.26 12.15 -97.98 437.64 269.89 60.43 -16.62 41.93 -317.27 -71.03zm784.05 161.67l-224.42 -119.85 -108.33 91.4 -45.93 -24.52 406.52 -341.84 64.71 34.56 -57.6 528.16 -50.54 -26.99 15.59 -140.92zm-188.39 -147.8l191.95 102.51 35.15 -295.33 -227.1 192.82zm832.05 380.28c-17.15,18.29 -37.19,29.55 -59.77,33.8 -22.55,4.26 -46.42,2.66 -71.33,-4.58 -25.03,-7.16 -49.7,-18.8 -74.34,-35.03l-18.3 287.42 -50.63 -47.5 23.44 -277.64 -67.82 -63.62 -149.51 159.38 -40.45 -37.95 337.32 -359.57 104.15 97.7c52.18,48.95 83.8,94.44 95.15,136.59 11.25,42.04 2,79.11 -27.91,111zm-44.66 -41.9c23.21,-24.75 31.24,-50.62 24.1,-77.47 -7.13,-26.84 -28.96,-57.4 -65.49,-91.67l-71.94 -67.48 -133.79 142.63 70.69 66.32c33.97,31.86 65.6,51.14 94.89,57.67 29.31,6.7 56.49,-3.29 81.54,-30z"/>
  <path class="fil3" d="M1313.82 4269.95c4.14,9.19 7.07,18.02 8.85,26.37 1.73,8.37 2.69,16.95 2.85,25.61l-22.04 0.09c0.3,-14.11 -3.08,-28.98 -10.11,-44.55 -12.83,-28.4 -30.33,-37.61 -52.6,-27.55l-42.62 19.24 29.58 65.5 -20.29 6.32 -28.51 -63.14 -155.61 70.28 -10.16 -22.52 155.61 -70.27 -21.3 -47.15 19.22 -8.68 21.3 47.15 41.19 -18.6c11.44,-5.16 22.66,-6.55 33.63,-4.11 10.88,2.39 20.79,7.7 29.64,15.84 8.8,8.16 15.96,18.2 21.37,30.17zm7.09 188.79c14.09,24.94 16.14,48.45 6.11,70.53 -10.01,22 -29.4,41.19 -58.17,57.45 -18.03,10.18 -35.75,16.4 -53.12,18.78 -17.41,2.33 -33.41,0.29 -47.98,-6.17 -14.52,-6.52 -26.44,-17.99 -35.84,-34.51 -9.33,-16.65 -13.24,-32.78 -11.65,-48.39 1.64,-15.64 7.97,-30.2 18.93,-43.81 10.98,-13.57 25.78,-25.63 44.36,-36.13 18.58,-10.49 36.62,-16.97 54.02,-19.3 17.38,-2.38 33.29,-0.23 47.66,6.51 14.4,6.72 26.29,18.42 35.68,35.04zm-18.87 10.65c-9.63,-17.05 -23.14,-26.51 -40.47,-28.38 -17.39,-1.85 -38.94,4.45 -64.73,19.02 -50,28.24 -65.28,59.6 -45.84,94.01 19.43,34.41 54.29,37.45 104.52,9.08 25.56,-14.44 42.06,-29.41 49.59,-45.02 7.47,-15.59 6.47,-31.81 -3.07,-48.71zm18.7 356.78c-7.65,-3.02 -15.25,-7.87 -22.85,-14.55 -7.6,-6.67 -13.8,-13.46 -18.64,-20.26 -11.99,-17.19 -16.86,-33.83 -14.56,-49.91 2.27,-16.13 10.34,-29.06 24.11,-38.72l109.32 -76.71 -28.35 -40.4 16.94 -11.88 28.35 40.39 39.39 -27.64 16.68 18.48 -41.88 29.39 42.28 60.25 -18.88 9.12 -40.34 -57.49 -108.84 76.38c-9.85,6.91 -15.59,14.96 -17.23,24.1 -1.56,9.14 2.1,20.09 11.01,32.8 4.57,6.51 9.51,11.98 14.95,16.46 5.43,4.48 11.04,8.2 16.87,11.22l-8.33 18.97zm252.57 -13.07c18.68,21.72 25.28,44.38 19.75,67.99 -5.53,23.53 -20.79,46.13 -45.85,67.69 -15.69,13.5 -31.86,23.06 -48.43,28.79 -16.62,5.68 -32.71,6.8 -48.26,3.3 -15.51,-3.55 -29.44,-12.48 -41.88,-26.85 -12.4,-14.51 -19.38,-29.57 -20.87,-45.19 -1.44,-15.65 1.92,-31.17 10.02,-46.66 8.12,-15.44 20.28,-30.17 36.46,-44.09 16.17,-13.91 32.6,-23.79 49.21,-29.47 16.58,-5.72 32.61,-6.72 48.02,-2.9 15.43,3.77 29.38,12.93 41.83,27.39zm-16.43 14.14c-12.78,-14.85 -27.87,-21.5 -45.23,-19.95 -17.42,1.58 -37.32,11.97 -59.77,31.28 -43.54,37.46 -52.4,71.19 -26.63,101.15 25.78,29.96 60.56,26.14 104.29,-11.48 22.25,-19.15 35.52,-37.05 39.85,-53.83 4.29,-16.75 0.14,-32.47 -12.51,-47.17zm241.72 192.2l-11.96 25.9c-8.64,-4.52 -16.83,-10.06 -24.52,-16.62 -7.68,-6.56 -15.7,-13.71 -24.01,-21.58 4.86,12.08 6.31,23.35 4.44,33.87 -1.95,10.53 -6.82,19.91 -14.69,28.22 -14.31,15.12 -30.84,22.99 -49.67,23.68 -18.79,0.66 -36.9,-7.32 -54.32,-23.81 -5.68,-5.38 -10.11,-10.02 -13.15,-13.97 -3.03,-3.85 -5.7,-7.97 -8.01,-12.31 -4.09,-0.48 -8.46,0 -12.96,1.36 -4.54,1.41 -8.36,3.75 -11.43,6.99 -3.74,3.95 -5.25,8.74 -4.64,14.31 0.7,5.57 5,12.13 13.03,19.73l28.04 26.55c9.72,9.2 16.85,19.34 21.41,30.43 4.6,11.04 6.37,21.88 5.28,32.34 -1.04,10.5 -5.19,19.58 -12.39,27.19 -13.96,14.75 -30.74,20.05 -50.43,16.02 -19.6,-4.04 -40.35,-16.47 -62.24,-37.19 -22.72,-21.52 -35.22,-40.12 -37.53,-55.84 -2.34,-15.67 3.91,-31.31 18.72,-46.95l16.43 15.56c-6.05,6.39 -9.71,12.81 -11.23,19.29 -1.46,6.45 0.02,13.73 4.4,21.81 4.43,8.1 12.56,17.77 24.39,28.97 34.66,32.82 60.67,40.16 77.88,21.98 7.6,-8.03 9.53,-17.5 5.85,-28.47 -3.68,-10.98 -10.75,-21.4 -21.12,-31.22l-28.04 -26.55c-12.16,-11.51 -18.46,-22.82 -18.86,-33.98 -0.35,-11.19 2.92,-20.4 9.85,-27.71 9.39,-9.92 23.07,-13.35 40.95,-10.32 -8.36,-24.48 -3.6,-46.25 14.28,-65.13 9.38,-9.91 20.22,-16.47 32.53,-19.6 12.32,-3.13 24.95,-2.83 38.05,0.93 13.05,3.8 25.33,11.16 36.88,22.1 13.38,12.3 24.39,21.75 33.08,28.38 8.59,6.63 16.33,11.72 23.25,15.32 6.91,3.61 14.42,7.07 22.46,10.32zm-92.6 -40.28c-13.66,-12.94 -27.09,-18.8 -40.23,-17.52 -13.19,1.22 -24.92,7.31 -35.19,18.15 -10.22,10.8 -15.52,22.89 -15.99,36.26 -0.4,13.42 6.32,26.73 20.27,39.94 11.69,11.08 23.77,16.09 36.37,15.2 12.51,-0.89 24.46,-7.3 35.8,-19.27 11.65,-12.31 17.44,-24.64 17.43,-36.94 -0.11,-12.31 -6.2,-24.22 -18.46,-35.82zm-7.19 255.64l12.77 -16.29 26.77 20.97 103.23 -131.74 -26.77 -20.98 12.88 -16.44 41.64 32.62 -27.33 42.33c16.96,-8.32 32.91,-12.74 47.87,-13.17 14.96,-0.53 30.13,5.28 45.45,17.29 4.28,3.35 7.91,6.67 10.79,9.92 2.92,3.29 5.85,6.89 8.9,10.77l-42.71 50 -18.78 -14.72 25.16 -32.13 3.5 -3.83c-1.19,-1.1 -2.43,-2.14 -3.8,-3.22 -13.24,-10.37 -28.05,-14.74 -44.47,-12.98 -16.32,1.75 -35.12,10.11 -56.24,25.02l-59.91 76.47 33.84 26.52 -12.76 16.29 -80.03 -62.7zm330.68 183.97c-4.53,7.16 -6.65,13.17 -6.3,18.06 0.45,4.87 2.66,9.72 6.86,14.58l-15.42 11.68c-6.07,-5.28 -10.53,-11.55 -13.29,-18.8 -2.81,-7.29 -2.71,-15.56 0.27,-25 -23.21,8.89 -46.65,5.79 -70.47,-9.2 -17.46,-11.1 -28.07,-24.71 -31.85,-40.87 -3.76,-16.22 -0.4,-32.53 10,-48.99 11.37,-17.99 27.05,-27.29 47,-27.98 20.01,-0.67 43.33,7.33 70.06,24.23l26.73 16.9 10.85 -17.16c8.71,-13.78 10.84,-25.98 6.46,-36.47 -4.41,-10.6 -13.41,-20.19 -27.08,-28.83 -5.96,-3.77 -13.13,-7.31 -21.51,-10.76 -8.35,-3.37 -18.17,-6.36 -29.39,-8.94l4.75 -20.95c13.15,2.8 24.55,6.19 34.24,10.09 9.7,3.92 18.61,8.47 26.81,13.65 20.71,13.1 33.19,28.1 37.4,44.92 4.18,16.87 1.02,33.62 -9.56,50.35l-56.56 89.49zm-83.76 -22.8c9.62,6.08 20.12,9.43 31.51,10.06 11.39,0.62 22.65,-1.45 33.82,-6.17l31.9 -50.46 -29.3 -18.52c-20.94,-13.24 -37.91,-18.83 -50.85,-16.77 -12.91,2.17 -23.19,9.22 -30.86,21.36 -15.59,24.65 -11.04,44.82 13.78,60.5zm389.63 -101.14c8.94,4.66 16.7,9.8 23.26,15.27 6.53,5.51 12.58,11.66 18.06,18.38l-17.27 13.68c-8.49,-11.28 -20.33,-20.88 -35.48,-28.78 -27.63,-14.41 -47.08,-10.83 -58.38,10.84l-21.62 41.46 63.72 33.22 -12.04 17.51 -61.43 -32.03 -78.93 151.4 -21.9 -11.42 78.93 -151.4 -45.88 -23.92 9.75 -18.7 45.88 23.92 20.9 -40.08c5.8,-11.13 13.77,-19.15 23.9,-24.01 10.03,-4.84 21.11,-6.79 33.1,-5.86 11.96,0.98 23.79,4.45 35.43,10.52zm136.74 155.99l-67.4 174.95 56.67 21.83 -7.72 20.04 -141.35 -54.46 7.72 -20.03 61.68 23.76 59.67 -154.86 -59.81 -23.05 7.74 -20.09 82.8 31.91zm48.02 -92.61l3.59 26.12 -86.47 1.9 -2.77 -16.03 85.65 -11.99zm155.37 336.21c-2.35,8.13 -2.71,14.49 -1.01,19.1 1.78,4.55 5.26,8.58 10.64,12.09l-11.56 15.51c-7.3,-3.38 -13.32,-8.17 -18,-14.36 -4.73,-6.22 -6.93,-14.19 -6.7,-24.09 -19.82,15.01 -43.19,18.55 -70.24,10.79 -19.86,-5.8 -33.84,-15.92 -41.97,-30.39 -8.12,-14.52 -9.44,-31.13 -4.03,-49.84 5.91,-20.44 18.37,-33.73 37.34,-39.96 19.04,-6.21 43.66,-5.01 74.05,3.77l30.37 8.79 5.64 -19.5c4.53,-15.66 3.18,-27.97 -3.95,-36.83 -7.18,-8.95 -18.5,-15.66 -34.03,-20.15 -6.78,-1.96 -14.65,-3.36 -23.66,-4.34 -8.96,-0.92 -19.22,-1.05 -30.71,-0.41l-1.28 -21.44c13.41,-0.97 25.31,-0.89 35.7,0.16 10.41,1.06 20.23,2.95 29.55,5.65 23.54,6.81 39.7,17.75 48.43,32.72 8.71,15.04 10.34,32.01 4.84,51.02l-29.42 101.71zm-86.79 1.42c10.93,3.16 21.96,3.45 33.07,0.88 11.11,-2.57 21.35,-7.69 30.76,-15.34l16.59 -57.35 -33.3 -9.63c-23.79,-6.88 -41.66,-7.53 -53.51,-1.94 -11.8,5.68 -19.7,15.31 -23.69,29.1 -8.11,28.03 1.88,46.12 30.08,54.28zm492.69 -166.84c10.57,0.8 20.88,3.4 30.85,7.86 9.99,4.38 19.96,13.05 30.02,25.88l-17.01 13.88c-6.35,-8.71 -13.3,-15.33 -20.8,-19.93 -7.5,-4.59 -16.64,-7.22 -27.34,-8.04 -15.23,-1.15 -26.88,1.99 -35.04,9.48 -8.15,7.55 -12.74,17.45 -13.68,29.9 -0.64,8.38 1.15,16.43 5.24,24.14 4.14,7.76 10.01,14.25 17.59,19.42 7.59,5.18 16.25,8.12 25.93,8.85l112.08 8.5 -1.67 22.05 -38.31 -2.91 -8.29 109.32c-3.79,4.63 -9.22,9.61 -16.3,14.91 -7.02,5.3 -16.05,9.68 -26.94,13.14 -10.91,3.45 -23.97,4.54 -39.19,3.44 -20.5,-1.61 -36.77,-6.94 -48.72,-16.02 -12.03,-9.08 -20.47,-20.03 -25.27,-32.85 -4.81,-12.75 -6.75,-25.62 -5.78,-38.45 1.52,-20.12 8.15,-36.48 19.88,-49.08 11.71,-12.61 27.92,-20.13 48.6,-22.51l0.08 -1.04c-12.25,-3.72 -21.58,-8.9 -28.02,-15.49 -6.5,-6.59 -10.88,-13.86 -13.13,-21.75 -2.26,-7.88 -3.1,-15.6 -2.53,-23.15 0.87,-11.48 4.51,-21.97 11.08,-31.4 6.48,-9.43 15.4,-16.73 26.75,-21.97 11.37,-5.3 24.69,-7.33 39.92,-6.18zm45.87 137.41l-56.94 -4.31c-14.71,-1.12 -26.89,1.4 -36.52,7.68 -9.69,6.26 -17.03,14.27 -22.13,24.06 -5.02,9.81 -7.96,19.57 -8.71,29.38 -0.74,9.8 0.66,19.44 4.1,28.85 3.5,9.47 9.58,17.45 18.16,23.94 8.66,6.49 20.36,10.3 35.13,11.42 12.33,0.94 23.57,-0.29 33.82,-3.72 10.24,-3.38 18.69,-8.7 25.4,-15.92l7.69 -101.38zm413.22 -73.7c18.71,-1.42 33.82,1.98 45.52,10.11 11.64,8.13 20.47,20.18 26.47,36 6,15.82 9.82,34.54 11.46,56.15 1.59,20.89 0.09,39.68 -4.42,56.37 -4.56,16.75 -12.37,30.19 -23.53,40.45 -11.09,10.17 -25.83,15.97 -44.27,17.42 -23.67,1.74 -43.19,-5.08 -58.64,-20.52l7.62 100.41 -24.32 5.22 -22.09 -291.3 20.25 -1.53 5.11 30.55c6.62,-11.14 15.07,-20.22 25.37,-27.29 10.3,-7.01 22.12,-11.02 35.47,-12.04zm-2.72 21.36c-12.84,0.97 -23.9,5.7 -33.05,14.18 -9.21,8.48 -16.45,17.33 -21.79,26.49l8.18 107.96c6.53,8.13 14.59,14.46 24.2,18.92 9.69,4.46 19.94,6.27 30.77,5.45 38.24,-2.9 55.16,-33.05 50.81,-90.5 -2.1,-27.6 -7.92,-48.63 -17.43,-63.03 -9.6,-14.38 -23.45,-20.85 -41.69,-19.47zm171.43 169.91l-3.47 -20.41 33.52 -5.7 -28.05 -165 -33.52 5.7 -3.51 -20.6 52.16 -8.86 12.93 48.7c5.25,-18.15 12.71,-32.93 22.46,-44.29 9.67,-11.42 24.17,-18.74 43.36,-22 5.36,-0.91 10.26,-1.36 14.6,-1.31 4.4,0.05 9.04,0.3 13.96,0.65l8.27 65.24 -23.54 4 -6.84 -40.23 -0.48 -5.16c-1.62,0.14 -3.21,0.35 -4.94,0.64 -16.58,2.82 -29.77,10.84 -39.52,24.17 -9.68,13.26 -16.14,32.79 -19.31,58.45l16.28 95.77 42.39 -7.21 3.47 20.41 -100.22 17.04zm246.06 -273.25c27.52,-7.96 50.87,-4.54 70.04,10.32 19.1,14.81 33.31,38.1 42.49,69.85 5.75,19.88 7.72,38.56 6.03,56.02 -1.74,17.47 -7.41,32.57 -17.07,45.26 -9.68,12.63 -23.59,21.57 -41.84,26.91 -18.34,5.25 -34.94,5.33 -49.76,0.19 -14.84,-5.21 -27.56,-14.72 -38.27,-28.52 -10.67,-13.81 -19,-31 -24.93,-51.5 -5.93,-20.5 -8.08,-39.54 -6.33,-57.01 1.69,-17.46 7.45,-32.45 17.33,-44.87 9.85,-12.47 23.98,-21.35 42.31,-26.65zm6.02 20.82c-18.82,5.44 -31.14,16.41 -36.95,32.84 -5.81,16.49 -4.64,38.91 3.58,67.36 15.96,55.17 42.95,77.27 80.91,66.29 37.97,-10.98 48.96,-44.2 32.94,-99.62 -8.16,-28.2 -18.92,-47.71 -32.38,-58.63 -13.45,-10.86 -29.46,-13.63 -48.1,-8.24zm214.46 -187.83l24.13 -6.07 110.02 272.1 -19.91 8.05 -13.75 -25.56c-3.28,14.17 -8.73,25.52 -16.4,33.99 -7.66,8.47 -16.57,14.72 -26.63,18.85 -17.11,6.86 -32.9,8.36 -47.26,4.39 -14.45,-3.99 -27.36,-12.44 -38.72,-25.36 -11.36,-12.92 -21.03,-29.23 -28.99,-48.9 -7.8,-19.31 -11.78,-37.79 -11.98,-55.36 -0.23,-17.63 3.55,-33.12 11.29,-46.43 7.66,-13.34 19.55,-23.25 35.5,-29.7 11.81,-4.78 23.01,-6.93 33.5,-6.35 10.55,0.55 20.73,3.47 30.61,8.75l-41.41 -102.4zm-8.96 117.4c-18,7.28 -28.99,19.6 -33.02,37.07 -4.02,17.46 -0.59,39.59 10.25,66.39 10.28,25.42 22.59,43.46 36.88,53.94 14.36,10.52 30.09,12.32 47.17,5.41 12.3,-4.97 21.35,-12.6 27.13,-22.97 5.74,-10.34 9.75,-20.76 11.93,-31.26l-40.73 -100.73c-9.15,-6.41 -18.97,-10.33 -29.31,-11.73 -10.39,-1.38 -20.48,-0.09 -30.3,3.88zm146.39 -84.09l69.9 132.11c6.95,13.14 14.8,21.21 23.61,24.31 8.75,3.13 19.16,1.49 31.28,-4.92 11.49,-6.08 20.51,-15.02 27.18,-26.89 6.62,-11.84 10.43,-23.44 11.33,-34.74l-72.85 -137.72 21.78 -11.52 97.71 184.7 -18.23 9.65 -16.19 -24.5c-2.53,13.33 -7.87,25.37 -15.95,36.23 -8.05,10.78 -17.52,19.01 -28.3,24.78 -17.87,9.39 -33.64,11.8 -47.49,7.19 -13.84,-4.6 -25.26,-15.38 -34.28,-32.42l-71.28 -134.74 21.78 -11.52zm350.82 18.06c9.39,-6.08 17.07,-13.14 23.19,-21.18 6.08,-8.1 10.85,-16.43 14.36,-25.17l19.94 6.97c-3.48,11.41 -9.38,22.41 -17.72,32.97 -8.38,10.51 -17.26,18.81 -26.56,24.9 -25.55,16.47 -50.48,21.05 -74.89,13.58 -24.42,-7.38 -45.52,-24.84 -63.34,-52.36 -11.25,-17.38 -18.24,-34.96 -21.01,-52.81 -2.74,-17.8 -0.8,-34.55 5.84,-50.24 6.71,-15.68 18.61,-29.09 35.77,-40.2 21.49,-13.92 44.79,-19.6 69.81,-17l-1.38 22.01c-22.97,-0.61 -42.17,4.03 -57.59,14.01 -16.12,10.44 -25.5,25.22 -28.03,44.28 -2.63,19.03 3.96,40.74 19.67,65.01 15.85,24.48 32.78,39.1 50.77,43.79 17.96,4.77 35.04,1.88 51.17,-8.56zm192.64 -138.02c8.81,-6.9 15.82,-14.61 21.19,-23.18 5.34,-8.61 9.34,-17.34 12.05,-26.36l20.48 5.16c-2.44,11.68 -7.33,23.16 -14.69,34.42 -7.4,11.23 -15.5,20.29 -24.21,27.19 -23.97,18.7 -48.39,25.5 -73.36,20.25 -24.99,-5.15 -47.57,-20.65 -67.79,-46.46 -12.77,-16.29 -21.31,-33.18 -25.68,-50.7 -4.32,-17.49 -3.89,-34.34 1.31,-50.57 5.28,-16.22 15.92,-30.64 32.01,-43.24 20.16,-15.8 42.85,-23.55 68,-23.21l0.61 22.05c-22.94,1.45 -41.64,7.79 -56.1,19.12 -15.12,11.85 -23.14,27.42 -23.94,46.62 -0.91,19.19 7.6,40.22 25.43,62.98 17.98,22.95 36.16,36 54.5,39.05 18.31,3.14 35.07,-1.27 50.19,-13.12zm-29.31 -351.64c4.62,-4.45 9.55,-6.59 14.9,-6.36 5.3,0.2 9.88,2.24 13.66,6.16 4.08,4.23 6.09,9.03 6.13,14.38 0.09,5.4 -2.2,10.29 -6.81,14.74 -4.29,4.13 -9.12,6.1 -14.51,5.81 -5.4,-0.19 -10.12,-2.38 -14.2,-6.61 -3.77,-3.92 -5.65,-8.57 -5.6,-13.92 -0.04,-5.35 2.15,-10.07 6.43,-14.2zm82.35 51.88l130.11 135 43.73 -42.15 14.9 15.46 -109.07 105.11 -14.89 -15.45 47.59 -45.88 -115.17 -119.49 -46.15 44.48 -14.94 -15.5 63.89 -61.58zm133.35 -147.05c18.92,-21.51 40.44,-31.18 64.6,-28.97 24.06,2.22 48.57,14.21 73.38,36.04 15.54,13.67 27.25,28.36 35.21,43.99 7.93,15.67 11.27,31.45 9.95,47.34 -1.37,15.85 -8.29,30.88 -20.8,45.19 -12.65,14.28 -26.6,23.28 -41.86,26.92 -15.31,3.59 -31.14,2.41 -47.6,-3.47 -16.42,-5.91 -32.69,-15.91 -48.71,-30.01 -16.02,-14.09 -28.07,-28.99 -36,-44.66 -7.96,-15.63 -11.17,-31.37 -9.52,-47.15 1.6,-15.81 8.75,-30.89 21.35,-45.22zm16.27 14.31c-12.94,14.71 -17.43,30.58 -13.5,47.56 3.98,17.03 17.01,35.3 39.25,54.87 43.12,37.93 77.76,42.04 103.86,12.37 26.1,-29.67 17.52,-63.59 -25.8,-101.69 -22.04,-19.39 -41.61,-30.05 -58.82,-32.03 -17.18,-1.92 -32.18,4.36 -44.99,18.92zm247.27 1.34l-170.52 -120.78 11.97 -16.89 26.01 15.97c-4.12,-12.99 -4.74,-26.66 -1.83,-41.16 2.92,-14.42 7.74,-26.38 14.5,-35.93 12.34,-17.42 25.56,-26.68 39.7,-27.84 14.1,-1.11 29.05,3.85 44.73,14.95l123.44 87.44 -14.28 20.16 -101.81 -72.11c-12.98,-9.2 -24.02,-15.98 -33.16,-20.31 -9.13,-4.34 -17.18,-5.52 -24.21,-3.53 -7.04,1.99 -14.08,8.02 -21.15,18 -5.34,7.54 -8.76,15.83 -10.19,24.79 -1.38,9.01 -1.47,17.75 -0.22,26.17 1.26,8.5 3.1,15.75 5.55,21.92l125.72 89.04 -14.25 20.11zm61.4 -259.66c15.41,8.36 29.45,12.73 42.14,13.2 12.63,0.44 23.7,-2.25 33.09,-7.99 9.42,-5.79 16.95,-13.63 22.63,-23.57 5.45,-9.54 8.89,-18.83 10.4,-27.87 1.49,-8.98 1.74,-19.2 0.75,-30.63l22.45 -2c1.67,12.06 1.31,24.44 -1.19,37.02 -2.4,12.55 -6.53,23.82 -12.22,33.9 -9.58,16.65 -21.64,28.75 -36.3,36.17 -14.64,7.5 -30.85,10.31 -48.57,8.61 -17.71,-1.71 -35.97,-7.96 -54.73,-18.68 -18.47,-10.55 -32.93,-23.06 -43.39,-37.61 -10.46,-14.54 -16.48,-29.82 -17.92,-45.83 -1.47,-16.05 2.17,-31.69 10.87,-46.91 12.54,-21.95 30.25,-34.7 53.1,-38.19 22.81,-3.42 47.77,2.57 74.84,18.03 3.09,1.76 5.86,3.43 8.27,4.95 2.4,1.52 4.54,2.88 6.27,4.02l-70.49 123.38zm-51.66 -101.24c-8.37,14.65 -10.23,29.91 -5.52,45.78 4.62,15.91 17.31,30.59 38.05,44.09l58.94 -103.16c-21.6,-11.74 -40.16,-16.02 -55.84,-12.84 -15.58,3.17 -27.48,11.86 -35.63,26.13zm252.68 -113.56c7.41,-16.17 10.12,-30.3 8.11,-42.38 -1.95,-12.06 -8.02,-20.39 -18.19,-25.05 -6.24,-2.86 -12.16,-4.36 -17.73,-4.49 -5.56,-0.12 -11.7,2.26 -18.33,7.11 -6.73,4.89 -14.82,13.41 -24.31,25.57 -9.63,12.03 -18.74,22.15 -27.41,30.2 -8.67,8.05 -17.55,13.3 -26.7,15.73 -9.12,2.37 -19.12,1.05 -30.12,-3.98 -10.52,-4.82 -18.09,-11.92 -22.78,-21.25 -4.66,-9.39 -6.62,-20.17 -5.7,-32.42 0.83,-12.21 4.29,-24.92 10.3,-38.03 6.81,-14.88 14.74,-26.9 23.72,-36.08 9.05,-9.23 18.11,-16.25 27.2,-21.19l11.88 18.17c-8.2,4.71 -15.82,10.61 -23.04,17.69 -7.15,7.04 -13.77,17.16 -19.81,30.34 -7.67,16.75 -10.41,29.73 -8.15,38.94 2.21,9.13 7.35,15.61 15.41,19.3 6.29,2.88 12.23,3.61 17.75,2.08 5.58,-1.43 11.61,-5.28 18.19,-11.44 6.54,-6.18 14.54,-14.97 23.92,-26.26 9,-10.96 17.89,-19.97 26.67,-27.19 8.84,-7.18 18.15,-11.67 27.88,-13.48 9.74,-1.87 20.45,-0.09 32.15,5.27 13.41,6.14 22.38,14.81 26.91,26.05 4.61,11.22 5.93,23.56 4.1,37.02 -1.89,13.44 -5.75,26.54 -11.53,39.32 -7.73,16.73 -16.7,29.77 -26.91,39.04 -10.23,9.25 -20.35,16.15 -30.46,20.68l-10.11 -21.41c9.73,-4.65 18.67,-10.94 26.96,-18.95 8.31,-8.07 14.99,-17.68 20.13,-28.91z"/>
 </g>
</svg>
